/* XPM */
static char *_3905d9bbfbb497a90d4faf395c7dadf[] = {
/* columns rows colors chars-per-pixel */
"64 64 215 2 ",
"   c #17130A",
".  c #1C150C",
"X  c #1F190D",
"o  c #1C1813",
"O  c #211A0F",
"+  c #331A0F",
"@  c #241C11",
"#  c #281E12",
"$  c #28270F",
"%  c #373B0E",
"&  c #292112",
"*  c #272319",
"=  c #332B11",
"-  c #373714",
";  c #1F3927",
":  c #262424",
">  c #272C3C",
",  c #3F3F3E",
"<  c #4B160F",
"1  c #56160F",
"2  c #561A12",
"3  c #6E1810",
"4  c #791611",
"5  c #56260A",
"6  c #632806",
"7  c #662B0A",
"8  c #6D2D09",
"9  c #773108",
"0  c #783009",
"q  c #793E0D",
"w  c #773D1C",
"e  c #6F312D",
"r  c #3D460D",
"t  c #3F4611",
"y  c #1C4734",
"u  c #3C6536",
"i  c #47460E",
"p  c #4F5110",
"a  c #784B0C",
"s  c #55660D",
"d  c #5E730E",
"f  c #5D7111",
"g  c #68770E",
"h  c #65780E",
"j  c #697F0E",
"k  c #607213",
"l  c #667B10",
"z  c #687E10",
"x  c #767015",
"c  c #787F12",
"v  c #5D4B2E",
"b  c #4F5035",
"n  c #714C2C",
"m  c #7A482B",
"M  c #6A5533",
"N  c #6E5A37",
"B  c #725C37",
"V  c #745E39",
"C  c #5B7221",
"Z  c #546631",
"A  c #6B672C",
"S  c #746B2D",
"D  c #74742D",
"F  c #776839",
"G  c #627236",
"H  c #263146",
"J  c #28364E",
"K  c #293F62",
"L  c #4F3753",
"P  c #6D3452",
"I  c #155B44",
"U  c #364253",
"Y  c #156149",
"T  c #0D6B51",
"R  c #0F7257",
"E  c #0F7258",
"W  c #147256",
"Q  c #387345",
"!  c #29476D",
"~  c #2C4B75",
"^  c #294E7A",
"/  c #2A5576",
"(  c #176761",
")  c #386F6C",
"_  c #206E74",
"`  c #46494B",
"'  c #535349",
"]  c #5A5657",
"[  c #645A58",
"{  c #566647",
"}  c #497F46",
"|  c #536C50",
" . c #4B7A52",
".. c #537356",
"X. c #7F6741",
"o. c #7F6A40",
"O. c #6C7451",
"+. c #555967",
"@. c #574C78",
"#. c #615567",
"$. c #624870",
"%. c #48796C",
"&. c #4D6E78",
"*. c #7B6E6B",
"=. c #84110F",
"-. c #91110F",
";. c #8B1311",
":. c #861B15",
">. c #921111",
",. c #9A1715",
"<. c #AE1514",
"1. c #A71816",
"2. c #B41516",
"3. c #BC1616",
"4. c #B51915",
"5. c #853607",
"6. c #823508",
"7. c #8A380B",
"8. c #893D14",
"9. c #B43D17",
"0. c #B43D18",
"q. c #863327",
"w. c #85293A",
"e. c #A9232E",
"r. c #A73228",
"t. c #A83529",
"y. c #A92738",
"u. c #8A4B11",
"i. c #897E09",
"p. c #817014",
"a. c #887E10",
"s. c #8A482C",
"d. c #875234",
"f. c #A64133",
"g. c #966A3D",
"h. c #897837",
"j. c #A5693D",
"k. c #8D4441",
"l. c #846A47",
"z. c #887644",
"x. c #8E744A",
"c. c #9C7A47",
"v. c #90754B",
"b. c #94794E",
"n. c #8B6F54",
"m. c #967A51",
"M. c #9B7F54",
"N. c #A67648",
"B. c #AF7148",
"V. c #8B4C65",
"C. c #847768",
"Z. c #8E736B",
"A. c #AE7B6D",
"S. c #6E860E",
"D. c #6E8513",
"F. c #758D11",
"G. c #6E8622",
"H. c #0F8363",
"J. c #118463",
"K. c #138D6D",
"L. c #2A8C66",
"P. c #578554",
"I. c #798657",
"U. c #548972",
"Y. c #668170",
"T. c #998D08",
"R. c #9C9208",
"E. c #9B9115",
"W. c #A69B0A",
"Q. c #A89B09",
"!. c #A49913",
"~. c #8B813B",
"^. c #91873E",
"/. c #A28D3D",
"(. c #9F844D",
"). c #9A894B",
"_. c #908D59",
"`. c #A0854E",
"'. c #A19649",
"]. c #A98A57",
"[. c #B18F5A",
"{. c #AF905A",
"}. c #B4915B",
"|. c #A9A147",
" X c #8F8E69",
".X c #858A76",
"XX c #988574",
"oX c #A88A69",
"OX c #B69561",
"+X c #B99661",
"@X c #BB9963",
"#X c #2D5584",
"$X c #295F80",
"%X c #375580",
"&X c #315A8E",
"*X c #296080",
"=X c #3E6484",
"-X c #3F6A9E",
";X c #526B8D",
":X c #66748A",
">X c #816883",
",X c #519980",
"<X c #799492",
"1X c #898A87",
"2X c #8E818B",
"3X c #8A8989",
"4X c #919292",
"5X c #9E9D9C",
"6X c #A98B86",
"7X c #B48A85",
"8X c #B3A595",
"9X c #818BA1",
"0X c #AAABA8",
"qX c #B5ABA9",
"wX c #B5B5B4",
/* pixels */
"@X+X}.}.}.}.+X@X@X{.(.(.(.@X+X}.}.}.}.+X@X@X{.(.(.(.(.(.`.}.}.}.}.}.}.}.}.(.}.@X}.}.}.}.}.@X@X@X(.(.(.(.(.(.].}.}.}.}.}.}.}.].(.",
"@XM.x.x.x.x.b.m.m.x.o.o.o.].M.x.x.x.x.b.m.m.x.o.o.o.o.o.l.x.v.v.x.v.x.x.x.o.x.m.v.v.v.v.v.m.m.m.o.o.o.o.o.o.z.v.x.x.x.x.x.x.x.(.",
"@Xv   . . . . . X X X X X X X   . . . . . X X X X X X X X X X X X X X X X X X X X X X X X X X X X X X X X X X X X X . . .   v (.",
"@Xx.. . X O @ @ @ @ @ h h s s . . X O @ @ @ @ @ h h s % @ @ @ @ 1.1.=.< @ @ @ @ @ @ @ @ > #X~ ! @ @ @ @ @ @ @ @ @ O O X . . x.(.",
"@Xb.. 1 1 < + @ H H > D.S.d d 1 1 1 < + @ H H > D.S.d t @ @ @ @ 4.<.>.2 @ @ @ @ p i i = > &X#X^ y y ; * @ @ - i % = O O X . v.(.",
"@Xx.. <.2.>.2 * &X#X^ G.S.d d <.<.2.>.2 * &X#X^ G.S.f t @ @ @ # 4.<.>.2 # # @ # !.R.i.i > &X#X^ K.H.T ; @ @ k F.d p @ O O . x.(.",
"F ).d 6X6XZ.' : &X#X^ G.S.d d 6X6X6XZ.' : &X#X^ G.S.d a 8 7 5 5 4.<.>.2 - k s p W.R.i.q e &X#X^ K.H.T q.>.4 x F.d Z W I y . v.F ",
"M '.F.0X0X3X] : &X#X^ G.S.d d 0X0X0X3X] : &X#X^ G.S.d a 5.9 8 6 4.<.>.2 - F.j d !.E.a.8.w.&X#X^ K.H.T r.2.>.p.F.d } K.E Y o m.B ",
"OXD F.0X0X3XU.K.&X#X^ G.S.d d 0X0X0X3XU.K.&X#X^ G.S.d a 5.9 8 6 4.<.>.@.=XF.j d wX0X3Xk.w.&X#X^ K.H.T r.2.>.p.F.d } K.E ( &X#.OX",
"@X~.F.7X7XZ.U.K.&X#X^ G G Z Z 7X7X7XZ.U.K.&X#X^ G G Z a 5.9 8 6 4.<.>.@.=XF.j d wX0X3Xk.w.&X#X^ K.H.T r.2.>.p.F.d I.<XY.&.&X*.@X",
"`.'.F.9.2.>...K.&X#X^ ` ` , , 9.9.2.>...K.&X#X^ ` ` , w 5.9 8 6 4.<.>.@.=XF.j d wX0X3Xk.w.&X#X^ K.H.T r.2.>.p.F.d .XwX4X<X&XXX`.",
"(.^.F.9.2.>...K.&X#X^ ` ` , , 0.9.2.>...K.&X#X^ ` ` , w 5.9 8 6 4.<.>.@.=XF.j d |.'.~.8.w.&X#X^ K.H.T r.2.>.p.F.d P.,X%.) &XC.(.",
"@X^.F.9.2.>...K.&X#X^ ' b b b 9.9.2.>...K.&X#X^ ' b b w 5.9 8 6 4.<.>.@.=XF.j d Q.R.i.7.w.&X#X^ K.H.T r.2.>.p.F.d } K.R ( &XC.@X",
"@X'.F.0.2.>...K.&X#X^ G.S.d d 0.0.2.>...K.&X#X^ G.S.d a 5.9 8 6 4.2.>.@.=XF.j d Q.R.i.7.w.&X#X^ K.H.T r.2.>.p.F.d P.K.E ( &XXX@X",
"X.z.D s.s.m { | +.] ] D S D S s.s.s.m { | +.] ] D S A B m n n n s.s.m [ [ D S A h.h.S m n +.] ] | { { d.s.m S S A G | { { #.n.X.",
"V V V M M M M M M M M V V V V V M M M M M M M M V V V V B M M M M M M B V V V V V B M M M M M M M N V V V V N M M M M M M V V V ",
"OX@X@X@X@X@X@X+XV z.(.+X@X@X@X@X@X@X@X@X+XV z.(.+X@X@X}.}.}.}.}.@X@X@X@X+X(.{.@X@X@X@X@X@X@Xb.V (.].@X@X+X}.}.}.}.}.@X@X@X@X].(.",
"@X].m.m.m.m.m.m.v N o.b.m.}.].m.m.m.m.m.m.v N o.b.m.m.v.v.v.v.x.m.m.m.m.m.o.x.m.m.m.m.m.m.m.F v o.x.m.m.m.x.x.v.v.v.m.m.m.m.(.(.",
"`.o.  . . . . . X X X X X X X   . . . . . X X X X X X X X X X X X X X X X X X X X X X X X X X X X X X X X X X X . . . . .   F (.",
"(.v.. . X O O O @ 4 <.;.3 @ @ . . X O O O @ 4 <.;.3 @ @ @ @ @ @ @ @ @ ! ^ ! J @ @ @ @ k l s r @ @ @ @ ,.1.=.1 @ O O @ . . . h.(.",
"@Xx.. X $ t % % @ :.3.>.4 @ @ . X $ t % % @ :.3.>.4 @ @ & p i i # @ @ ;X;X&.U @ @ @ @ I._.O.b @ @ @ @ 1.2.>.e H > : O 1 1 < F (.",
"@Xv . O i F.z f # :.3.>.4 @ # . O i F.z f # :.3.>.4 @ # - Q.T.i.= # # 5XwX3X[ # # # # 0X0X3X] @ # # # 1.2.>.$.&X^ K @ 1.2.>.m `.",
"o.I.R I u F.z f & :.3.>.8.f s R I u F.z f & :.3.>.8.f s s Q.T.i.= # & :X<X;X` & 8 8 7 0X0X3X:X/ ~ ! K e.2.>.$.&X^ / W t.2.>.c.F ",
"B  XK.R Q F.z f * :.3.>.u.F.l K.R Q F.z f * :.3.>.u.F.l g Q.T.i.= * & ^ &X^ J & 6.6.0 8X0X1X:X-X&X#X^ y.2.>.$.&X^ _ K.f.4.;.N.V ",
"OX XK.R Q F.z C &XV.3.>.u.F.z K.R Q F.z C &XV.3.>.u.F.z g Q.T.i.L.J.T $X&X^ J & 6.6.0 c F.f &.-X&X#X^ y.2.>.$.&X^ _ K.0XqX3XoXOX",
"@XXX<XY...F.z C &X>XA.V.l.F.z <XY...F.z C &X>XA.V.l.F.l g Q.T.i.L.H.T *X&X^ L 3 5.6.9 c F.d &.-X&X#X^ y.2.>.$.&X^ _ K.6X7XZ.oX@X",
"}.8XwX4X.XF.z C &X<XwX4X.XF.l wX4X.XF.z C &X9XwX4X.XF.l g Q.T.i.L.H.T *X&X^ P -.5.6.0 c F.d &.-X&X#X^ y.2.>.$.&X^ _ K.f.2.>.N.}.",
"}.I.,X%. .F.z C &X9XwX4X.XF.l ,X%. .F.z C &X9XwX4X.XF.l g Q.T.i.L.H.T *X&X^ P -.5.6.0 c F.d &.-X&X#X^ y.2.>.$.&X^ _ K.f.2.>.d.}.",
"@XO.K.R Q F.z C &X2XqX2X XF.l K.R Q F.z C &X2XqX2X XF.l g Q.T.i.L.H.T *X&X^ P -.5.6.0 c F.d &.-X&X#X^ y.2.>.$.&X^ _ K.f.2.>.d.@X",
"@X XK.E Q F.z C &XV.3.>.u.F.l K.E Q F.z C &XV.3.>.u.F.l g Q.T.i.L.H.T *X&X^ P -.5.6.0 c F.d &.;X&X#X^ y.2.>.$.&X^ _ K.f.2.>.g.@X",
"l._.I.O.z.^.~.z.XXA.B.N.N.[._.I.O.z.).~.z.XXA.B.N.N.^.~.h./.h.S _._.O.C.C.C.x.g.g.g.g.^.^.h. XXXZ.Z.Z.N.j.g.n.C.] *. XN.j.g.l.l.",
"V V V V z.z.z.`.@XOX}.}.[.`.(.(.(.(.(.(.`.@X+X}.}.[.(.(.(.(.z.V OX}.(.(.(.(.(.`.`.(.(.(.(.(.}.@X}.}.}.`.`.`.(.`.B b.@X].(.`.V V ",
"@X].}.}.}.}.}.}.}.].(.(.(.(.(.(.@X@X@X}.}.}.}.}.@X}.(.}.}.}.}.}.}.}.}.`.(.(.(.(.(.{.@X@X+X}.}.}.}.+X@X(.(.(.{.@X@X+X}.}.}.}.+X(.",
"@Xx.x.x.x.x.x.x.v.z.o.o.o.o.o.o.m.m.m.v.v.v.v.v.m.x.o.x.v.v.v.v.v.v.x.l.o.o.o.o.o.x.m.m.b.x.x.x.x.M.].o.o.o.x.m.m.b.x.x.x.x.M.(.",
"@Xv   . . . . . X X X X X X X X X X X . X X X X X X X X X X X X X X X X X X X X X X X . . . . .   X X X X X X X . . . . .   v (.",
"@Xx.. . X O O @ @ @ @ @ @ @ @ @ ! ~ #X> @ @ @ @ @ @ @ @ < =.,.1.@ @ @ @ % s h h @ @ @ @ @ O X . . s s h h @ @ @ @ @ O X . . x.(.",
"@Xb.. X O O = % i - @ @ * ; y y ^ #X&X> = i i p @ @ @ @ 2 >.<.4.@ @ @ @ t d S.D.> H H @ + < 1 1 1 d d S.D.> H H @ + < 1 1 . b.(.",
"@Xx.. O O @ p d F.k @ @ ; T H.K.^ #X&XH i i.R.!.# @ # # 2 >.<.4.# @ @ @ t f S.G.^ #X&X* 2 >.2.<.<.f f S.G.^ #X&X* 2 >.2.<.. x.(.",
"F v.. y I W Z d F.x 4 >.q.T H.K.^ #X&Xe q i.R.W.p s k - 2 >.<.4.5 5 7 8 a d S.G.^ #X&X: ' Z.6X6X6Xd d S.G.^ #X&X: ' Z.6X6Xd ).F ",
"M m.o Y E K.} d F.p.>.2.r.T H.K.^ #X&Xw.8.i.E.!.d j F.- 2 >.<.4.6 8 9 5.a d S.G.^ #X&X: ] 3X0X0X0Xd d S.G.^ #X&X: ] 3X0X0XF.'.B ",
"OX#.&X( E K.} d F.p.>.2.r.T H.K.^ #X&Xw.k.3X0XwXd j F.=X@.>.<.4.6 8 9 5.a d S.G.^ #X&XK.U.3X0X0X0Xd d S.G.^ #X&XK.U.3X0X0XF.D OX",
"@X*.&X&.Y.<XI.d F.p.>.2.r.T H.K.^ #X&Xw.k.3X0XwXd j F.=X@.>.<.4.6 8 9 5.a Z G G ^ #X&XK.U.Z.7X7X7XZ Z G G ^ #X&XK.U.Z.7X7XF.~.@X",
"`.XX&X<X4XwX.Xd F.p.>.2.r.T H.K.^ #X&Xw.k.3X0XwXd j F.=X@.>.<.4.6 8 9 5.w , ` ` ^ #X&XK...>.2.9.9., , ` ` ^ #X&XK...>.2.9.F.'.`.",
"(.C.&X) %.,XP.d F.p.>.2.r.T H.K.^ #X&Xw.8.~.'.|.d j F.=X@.>.<.4.6 8 9 5.w , ` ` ^ #X&XK...>.2.9.9., , ` ` ^ #X&XK...>.2.9.F.^.(.",
"@XC.&X( E K.} d F.p.>.2.r.T H.K.^ #X&Xw.7.i.R.Q.d j F.=X@.>.<.4.6 8 9 5.w b b ' ^ #X&XK...>.2.9.9.b b b ' ^ #X&XK...>.2.9.F.^.@X",
"@XXX&X( E K.} d F.p.>.2.r.T H.K.^ #X&Xw.7.i.R.Q.d j F.=X@.>.2.4.6 8 9 5.a d S.G.^ #X&XK...>.2.0.0.d d S.G.^ #X&XK...>.2.0.F.'.@X",
"X.n.#.{ { | G A S S m s.d.{ { | ] ] ] n m S h.h.A S D [ [ m s.s.n n n m B A S D ] ] +.| { m s.s.s.S D S D ] ] +.| { m s.s.D z.X.",
"V V V M M M M M M N V V V V N M M M M M M M B V V V V V B M M M M M M B V V V V M M M M M M M M V V V V V M M M M M M M M V V V ",
"OX].@X@X@X@X}.}.}.}.}.+X@X@X].(.V b.@X@X@X@X@X@X@X[.(.+X@X@X@X@X}.}.}.}.}.@X@X+X(.z.V +X@X@X@X@X@X@X@X@X+X(.z.V +X@X@X@X@X@X@X(.",
"@X(.m.m.m.m.v.v.x.v.v.m.m.m.x.o.v F m.m.m.m.m.m.m.x.o.m.m.m.m.m.x.v.x.x.v.m.m.b.o.N v m.m.m.m.m.m.].}.m.b.o.N v m.m.m.m.m.m.].(.",
"`.F   . . . . . X X X X X X X X X X X X X X X X X X O X X X X X X X X X X X X X X X X . . . . .   X X X X X X X . . . . .   o.(.",
"(.h.  . . O O O @ 1 =.1.,.@ @ @ @ r s l k @ @ @ @ J ! ^ ! @ @ @ @ @ @ @ @ @ 3 ;.<.4 @ O O O X . . @ @ 3 ;.<.4 @ O O O X . . v.(.",
"@XF < 1 1 O : > H e >.2.1.@ @ @ @ b O._.I.@ @ @ @ U &.;X;X@ @ # i p p & @ @ 4 >.3.:.@ % % t $ X . @ @ 4 >.3.:.@ % % t $ X . x.(.",
"@Xm -.2.1.@ K ^ &X$.>.2.1.# # # # ] 3X0X0X# # # # [ 3XwX5X# # = i.T.Q.- # @ 4 >.3.:.# f z F.i O . # @ 4 >.3.:.# f z F.i O . v `.",
"o.c.>.2.t.W / ^ &X$.>.2.e.K ! ~ %X:X3X0X0X7 8 8 & ` ;X<X:X& & = i.T.Q.s s f 8.>.3.:.& f z F.u I W s f 8.>.3.:.& f z F.u I W I.F ",
"B N.;.4.f.K._ ^ &X$.>.2.y.^ #X&X-X:X1X0X8X0 6.6.& J ^ &X^ & * = i.T.Q.g l F.u.>.3.:.* f z F.Q R K.l F.u.>.3.:.* f z F.Q R K. XV ",
"OXoX3XqX0XK._ ^ &X$.>.2.y.^ #X&X-X&.d F.c 0 6.6.& J ^ &X*XT J.L.i.T.Q.g l F.u.>.3.V.&XC z F.Q R K.l F.u.>.3.V.&XC z F.Q R K. XOX",
"@XoXZ.7X6XK._ ^ &X$.>.2.y.^ #X&X-X&.d S.c 0 6.5.3 L ^ &X*XT H.L.i.T.Q.g l F.l.V.A.>X&XC z F...Y.<Xl F.l.V.A.>X&XC z F...Y.<XXX@X",
"}.N.>.2.f.K._ ^ &X$.>.2.y.^ #X&X-X&.d S.c 0 6.5.-.P ^ &X*XT H.L.i.T.Q.g l F..X4XwX9X&XC z F..X4XwXl F..X4XwX9X&XC z F..X4XwX8X}.",
"}.d.>.2.f.K._ ^ &X$.>.2.y.^ #X&X-X&.d F.c 0 6.5.-.P ^ &X*XT H.L.i.T.Q.g l F..X4XwX9X&XC z F. .%.,Xl F..X4XwX9X&XC z F. .%.,XI.}.",
"@Xd.>.2.f.K._ ^ &X$.>.2.y.^ #X&X-X&.d F.c 9 6.5.-.P ^ &X*XT H.L.i.T.Q.g l F. X2XqX2X&XC z F.Q R K.z F. X2XqX>X&XC z F.Q R K.O.@X",
"@Xg.>.2.f.K._ ^ &X$.>.2.y.^ #X&X;X&.d F.c 9 6.5.-.P ^ &X$XT H.L.i.T.Q.g l F.u.>.3.V.&XC z F.Q E K.l F.u.>.3.V.&XC z F.Q E K. X@X",
"l.c.g.j.N. X*.] C.n.g.j.N.Z.Z.Z.XX Xh.^.^.g.g.g.g.x.C.C.C.O._._.S h./.h.~.^.N.N.B.A.XXz.~.^.z.O.I._.[.N.N.B.A.XXz.~.^.z.O.I._.l.",
"V V V (.].@Xb.B `.(.`.`.`.}.}.}.@X}.(.(.(.(.(.(.`.(.(.(.(.(.}.}.V z.(.(.`.`.[.}.}.+X@X`.(.(.(.(.(.(.`.[.}.}.}.@X`.`.(.(.V V V V "
};
