/* XPM */
static char *d8d3e11e566a43a7839732e44b46ccc20GxyQnFjaeXjIX3D[] = {
/* columns rows colors chars-per-pixel */
"64 64 65 1 ",
"  c #010000",
". c #050101",
"X c #0B0202",
"o c #0C0202",
"O c #110303",
"+ c #130404",
"@ c #150404",
"# c #1A0505",
"$ c #1E0606",
"% c #210707",
"& c #230808",
"* c #250909",
"= c #2A0B0B",
"- c #2B0C0C",
"; c #2E0D0D",
": c #300E0E",
"> c #361111",
", c #3A1313",
"< c #3C1313",
"1 c #3E1414",
"2 c #421616",
"3 c #441717",
"4 c #461818",
"5 c #4B1A1A",
"6 c #531E1E",
"7 c #541E1E",
"8 c #572020",
"9 c #5B2121",
"0 c #5C2222",
"q c #632525",
"w c #672727",
"e c #692828",
"r c #6C2929",
"t c #702A2A",
"y c #722C2C",
"u c #762D2D",
"i c #7A2F2F",
"p c #7B3030",
"a c #7C3131",
"s c #803232",
"d c #873535",
"f c #8A3737",
"g c #8D3838",
"h c #933B3B",
"j c #943B3B",
"k c #953C3C",
"l c #993E3E",
"z c #9D3F3F",
"x c #A14141",
"c c #A64444",
"v c #AA4545",
"b c #AE4747",
"n c #AE4848",
"m c #B84C4C",
"M c #BF4F4F",
"N c #C15050",
"B c #C65252",
"V c #D25757",
"C c #D15858",
"Z c #D95B5B",
"A c #DB5C5C",
"S c #E35F5F",
"D c #EE6464",
"F c #F46767",
"G c #F96969",
/* pixels */
"GGGGGGGGGGGGGGGGGGGGGGGGGGGGGGGGGGGGGGGGGGGGGGGGGGGGGGGGGGGGGGGG",
"GGGGGGGGGGGGGGGGGGGGGGGGGGGGGGGGGGGGGGGGGGGGGGGGGGGGGGGGGGGGGGGG",
"GGGGGGGGGGGGGGGGGGGGGGGGGGGGGGGGGGGGGGGGGGGGGGGGGGGGGGGGGGGGGGGG",
"GGGGGGGGGGGGGGGGGGGGGGGGGGGGGGGGGGGGGGGGGGGGGGGGGGGGGGGGGGGGGGGG",
"GGGGGGGGGGGGGGGGGGGGGGGGGGGGGGGGGGGGGGGGGGGGGGGGGGGGGGGGGGGGGGGG",
"GGGGGGGGGGGGGGGGGGGGGGGGGGGGGGGGGA637SGGGGGGGGGGGGGGGGGGGGGGGGGG",
"GGGGGGGGGGGGGGGGGGGGGGGGGGGGGGGGGA# ogDGGGGGGGGGGGGGGGGGGGGGGGGG",
"GGGGGGGGGGGGGGGGGGGGGGGGGGGGGGGGGAO  1lGGGGGGGGGGGGGGGGGGGGGGGGG",
"GGGGGGGGGGGGGGGGGGGGGGGGGGGGGGGGGG*   6xGGGGGGGGGGGGGGGGGGGGGGGG",
"GGGGGGGGGGGGGGGGGGGGGGGGGGGGGGGGGG; .$ 7MGGGGGGGGGGGGGGGGGGGGGGG",
"GGGGGGGGGGGGGGGGGGGGGGGGGGGGGGGGGG; #7oowMGGGGGGGGGGGGGGGGGGGGGG",
"GGGGGGGGGGGGGGGGGGGGGGGGGGGGGGGGGG: $lwXOwAGGGGGGGGGGGGGGGGGGGGG",
"GGGGGGGGGGGGGGGGGGGGGGGGGGGGGGGGGG, @mM7 &uAGGGGGGGGGGGGGGGGGGGG",
"GGGGGGGGGGGGGGGGGGGGGGGGGGGGGGGGGG1 @vGx6 =aAGGGGGGGGGGGGGGGGGGG",
"GGGGGGGGGGGGGGGGGGGGGGGGGGGGGGGGGG1 @vGGl2.;gAGGGGGGGGGGGGGGGGGG",
"GGGGGGGGGGGGGGGGGGGGGGGGGGGGGGGGGG1 @vGGDg:o:gDGGGGGGGGGGGGGGGGG",
"GGGGGGGGGGGGGGGGGGGGGGGGGGGGGGGGGG1 @vGGGAg;.2lGGGGGGGGGGGGGGGGG",
"GGGGGGGGGGGGGGGGGGGGGGGGGGGGGGGGGG1 @vGGGGAa= 6xGGGGGGGGGGGGGGGG",
"GGGGGGGGGGGGGGGGGGGGGGGGGGGGGGGGGG1 @vGGGGGAu& 7MGGGGGGGGGGGGGGG",
"GGGGGGGGGGGGGGGGGGGGGGGGGGGGGGGGGG1 @vGGGGGGAwoowMGGGGGGGGGGGGGG",
"GGGGGGGGGGGGGGGGGGGGGGGGGGGGGGGGGG1 @vGGGGGGGMwXOwAGGGGGGGGGGGGG",
"GGGGGGGGGGGGGGGGGGGGGGGGGGGGGGGGGG1 @vGGGGGGGGM7 &uAGGGGGGGGGGGG",
"GGGGGGGGGGGGGGGGGGGGGGGGGGGGGGGGGG1 @vGGGGGGGGGx6 =aAGGGGGGGGGGG",
"GGGGGGGGGGGGGGGGGGGGGGGGGGGGGGGGGG1 @vGGGGGGGGGGl5.;aAGGGGGGGGGG",
"GGGGGGGGGGGGGGGGGGGGGGGGGGGGGGGGGG1 @vGGGGGGGGGGDl2.;gDGGGGGGGGG",
"GGGGGGGGGGGGGGGGGGGGGGGGGGGGGGGGGG1 @vGGGGGGGGGGGDg;.2lDGGGGGGGG",
"GGGGGGGGGGGGGGGGGGGGGGGGGGGGGGGGGG1 @vGGGGGGGGGGGGAa;.5lGGGGGGGG",
"GGGGGGGGGGGGGGGGGGGGGGGGGGGGGGGGGG1 @vGGGGGGGGGGGGGAa* 6bGGGGGGG",
"GGGGGGGGGGGGGGGGGGGGGGGGGGGGGGGGGG1 @vGGGGGGGGGGGGGGAeO 0MGGGGGG",
"GGGGGGGGGGGGGGGGGGGGGGGGGGGGGGGGGG1 @vGGGGGGGGGGGGGGGBwoowBGGGGG",
"GGGGGGGGGGGGGGGGGGGGGGGGGGGGGGGGGG1 @vGGGGGGGGGGGGGGGGM0 OeAGGGG",
"GGGNp5245569qqqqqqqqqqrusssdgjjjjj& OvGGGGGGGGGGGGGGGGGl; ;VGGGG",
"GGGdO                               .vGGGGGGGGGGGGGGGFDg$.2VGGGG",
"GGGdO                               XvGGGGGGGGGGGGGGGFc2.=gDGGGG",
"GGGNp524553<>>>>>>>>>>:=***%$#####X.+kGGGGGGGGGGGGGGGV8.#iAGGGGG",
"GGGGGGGGGGGGGGGGGGGGGGGGGGGGGGGGGGs@@sGGGGGGGGGGGGGGAt#.0CGGGGGG",
"GGGGGGGGGGGGGGGGGGGGGGGGGGGGGGGGGGyooyGGGGGGGGGGGGGDa* 6bGGGGGGG",
"GGGGGGGGGGGGGGGGGGGGGGGGGGGGGGGGGGyooyGGGGGGGGGGGGGl, ,lGGGGGGGG",
"GGGGGGGGGGGGGGGGGGGGGGGGGGGGGGGGGGaoowGGGGGGGGGGGGN6 &aDGGGGGGGG",
"GGGGGGGGGGGGGGGGGGGGGGGGGGGGGGGGGGdO.0GGGGGGGGGGGVwOOwAGGGGGGGGG",
"GGGGGGGGGGGGGGGGGGGGGGGGGGGGGGGGGGhO.6GGGGGGGGGGDi$.8NGGGGGGGGGG",
"GGGGGGGGGGGGGGGGGGGGGGGGGGGGGGGGGGhO.6GGGGGGGGGGl> ,cGGGGGGGGGGG",
"GGGGGGGGGGGGGGGGGGGGGGGGGGGGGGGGGGdO.9GGGGGGGGGn6 *aDGGGGGGGGGGG",
"GGGGGGGGGGGGGGGGGGGGGGGGGGGGGGGGGGaXX9GGGGGGGGV0.#tAGGGGGGGGGGGG",
"GGGGGGGGGGGGGGGGGGGGGGGGGGGGGGGGGGuX 9GGGGGGGDt#.0CGGGGGGGGGGGGG",
"GGGGGGGGGGGGGGGGGGGGGGGGGGGGGGGGGGaX 7GGGGGGGf: 4bGGGGGGGGGGGGGG",
"GGGGGGGGGGGGGGGGGGGGGGGGGGGGGGGGGGaX 7GGGGGGn4 :fGGGGGGGGGGGGGGG",
"GGGGGGGGGGGGGGGGGGGGGGGGGGGGGGGGGGaX 7GGGGGN0.$tDGGGGGGGGGGGGGGG",
"GGGGGGGGGGGGGGGGGGGGGGGGGGGGGGGGGGaX 7DGGGSwOOwCGGGGGGGGGGGGGGGG",
"GGGGGGGGGGGGGGGGGGGGGGGGGGGGGGGGGGaoX5SGGGi= 6NGGGGGGGGGGGGGGGGG",
"GGGGGGGGGGGGGGGGGGGGGGGGGGGGGGGGGGaoX5ZGGz1 1zGGGGGGGGGGGGGGGGGG",
"GGGGGGGGGGGGGGGGGGGGGGGGGGGGGGGGGGaoX5ZGN6 =iGGGGGGGGGGGGGGGGGGG",
"GGGGGGGGGGGGGGGGGGGGGGGGGGGGGGGGGGaoX5ZNwO@wSGGGGGGGGGGGGGGGGGGG",
"GGGGGGGGGGGGGGGGGGGGGGGGGGGGGGGGGGaOX5Mw@owNGGGGGGGGGGGGGGGGGGGG",
"GGGGGGGGGGGGGGGGGGGGGGGGGGGGGGGGGGa@O,w; 4NGGGGGGGGGGGGGGGGGGGGG",
"GGGGGGGGGGGGGGGGGGGGGGGGGGGGGGGGGGa#O*; :fGGGGGGGGGGGGGGGGGGGGGG",
"GGGGGGGGGGGGGGGGGGGGGGGGGGGGGGGGGGa#Xo $tDGGGGGGGGGGGGGGGGGGGGGG",
"GGGGGGGGGGGGGGGGGGGGGGGGGGGGGGGGGGaO  XwVGGGGGGGGGGGGGGGGGGGGGGG",
"GGGGGGGGGGGGGGGGGGGGGGGGGGGGGGGGGGuX  2NGGGGGGGGGGGGGGGGGGGGGGGG",
"GGGGGGGGGGGGGGGGGGGGGGGGGGGGGGGGGG9. *hGGGGGGGGGGGGGGGGGGGGGGGGG",
"GGGGGGGGGGGGGGGGGGGGGGGGGGGGGGGGGGy.-iDGGGGGGGGGGGGGGGGGGGGGGGGG",
"GGGGGGGGGGGGGGGGGGGGGGGGGGGGGGGGGGzhhDGGGGGGGGGGGGGGGGGGGGGGGGGG",
"GGGGGGGGGGGGGGGGGGGGGGGGGGGGGGGGGGGGGGGGGGGGGGGGGGGGGGGGGGGGGGGG",
"GGGGGGGGGGGGGGGGGGGGGGGGGGGGGGGGGGGGGGGGGGGGGGGGGGGGGGGGGGGGGGGG"
};
