/* XPM */
static char *_6a173c8db414957c6465d4377e4bb77WqzOg934NhVIMLd5[] = {
/* columns rows colors chars-per-pixel */
"64 64 57 1 ",
"  c #0B0303",
". c #0B0404",
"X c #0E0404",
"o c #110404",
"O c #170606",
"+ c #1A0707",
"@ c #1F0808",
"# c #210909",
"$ c #240B0B",
"% c #280C0C",
"& c #2A0D0D",
"* c #2C0E0E",
"= c #300F0F",
"- c #321010",
"; c #371212",
": c #391313",
"> c #391414",
", c #3D1515",
"< c #411717",
"1 c #431818",
"2 c #461919",
"3 c #491A1A",
"4 c #4D1B1B",
"5 c #531F1F",
"6 c #551F1F",
"7 c #5A2222",
"8 c #5F2424",
"9 c #632525",
"0 c #652626",
"q c #672828",
"w c #6B2929",
"e c #6C2A2A",
"r c #702B2B",
"t c #742D2D",
"y c #782F2F",
"u c #7C3030",
"i c #803333",
"p c #863535",
"a c #913A3A",
"s c #943C3C",
"d c #9B3E3E",
"f c #9D4040",
"g c #A24242",
"h c #AA4646",
"j c #AE4747",
"k c #B74B4B",
"l c #BD4E4E",
"z c #C15050",
"x c #C65252",
"c c #C85353",
"v c #CF5656",
"b c #D25757",
"n c #D95B5B",
"m c #DB5C5C",
"M c #E35F5F",
"N c #EE6464",
"B c #F96969",
/* pixels */
"BBBBBBBBBBBBBBBBBBBBBBBBBBBBBBBBBBBBBBBBBBBBBBBBBBBBBBBBBBBBBBBB",
"BBBBBBBBBBBBBBBBBBBBBBBBBBBBBBBBBBBBBBBBBBBBBBBBBBBBBBBBBBBBBBBB",
"BBBBBBBBBBBBBBBBBBBBBBBBBBBBBBBBBBBBBBBBBBBBBBBBBBBBBBBBBBBBBBBB",
"BBBBBBBBBBBBBBBBBBBBBBBBBBBBBBBBBBBBBBBBBBBBBBBBBBBBBBBBBBBBBBBB",
"BBBBBBBBBBBBBBBBBBBBBBBBBBBBBBBBBBBBBBBBBBBBBBBBBBBBBBBBBBBBBBBB",
"BBBBBBBBBBBBBBBBBBBBBBBBBBBBBBBBBBBBBBBBBBBBBBBBBBBBBBBBBBBBBBBB",
"BBBBBBBBBBBBBBBBBBBBBBBBBBBBBBBBBBBBBBBBBBBBBBBBBBBBBBBBBBBBBBBB",
"BBBBBBBBBBBBBBBBBBBBBBBBBBBBBBBBBBBBBBBBBBBBBBBBBBBBBBBBBBBBBBBB",
"BBBBBBBBBBBBBBBBBBBBBBBBBBBBBBBBzzzBBBBBBBBBBBBBBBBBBBBBBBBBBBBB",
"BBBBBBBBBBBBBBBBBBBBBBBBBBBBBBBz;O;bBBBBBBBBBBBBBBBBBBBBBBBBBBBB",
"BBBBBBBBBBBBBBBBBBBBBBBBBBBBBBz7. X9bBBBBBBBBBBBBBBBBBBBBBBBBBBB",
"BBBBBBBBBBBBBBBBBBBBBBBBBBBBBz7o   O9bBBBBBBBBBBBBBBBBBBBBBBBBBB",
"BBBBBBBBBBBBBBBBBBBBBBBBBBBBz7o @;+ O9bBBBBBBBBBBBBBBBBBBBBBBBBB",
"BBBBBBBBBBBBBBBBBBBBBBBBBBBj3X #uze@ O9bBBBBBBBBBBBBBBBBBBBBBBBB",
"BBBBBBBBBBBBBBBBBBBBBBBBBBj3  #umBme@ O7bBBBBBBBBBBBBBBBBBBBBBBB",
"BBBBBBBBBBBBBBBBBBBBBBBBBf<  &umBBBme@ O7bBBBBBBBBBBBBBBBBBBBBBB",
"BBBBBBBBBBBBBBBBBBBBBBBBf<  -aNBBBBBme$ O7bBBBBBBBBBBBBBBBBBBBBB",
"BBBBBBBBBBBBBBBBBBBBBBBa;  -aNBBBBBBBNy& O7bBBBBBBBBBBBBBBBBBBBB",
"BBBBBBBBBBBBBBBBBBBBBBa;  ;fNBBBBBBBBBNy& O7bBBBBBBBBBBBBBBBBBBB",
"BBBBBBBBBBBBBBBBBBBBBp-  ,fNBBBBBBBBBBBNy& O7mBBBBBBBBBBBBBBBBBB",
"BBBBBBBBBBBBBBBBBBBBi=  1jBBBBBBBBBBBBBBNy$ O6mBBBBBBBBBBBBBBBBB",
"BBBBBBBBBBBBBBBBBBMt&  1jBBBBBBBBBBBBBBBBNr$ O6mBBBBBBBBBBBBBBBB",
"BBBBBBBBBBBBBBBBBMt# X2kBBBBBBBBBBBBBBBBBBNr& O6mBBBBBBBBBBBBBBB",
"BBBBBBBBBBBBBBBBMt# X4xBBBBBBBBBBBBBBBBBBBBBt& O6mBBBBBBBBBBBBBB",
"BBBBBBBBBBBBBBBMw# o7xBBBBBBBBBBBBBBBBBBBBBBBt& O5bBBBBBBBBBBBBB",
"BBBBBBBBBBBBBBz7+ o7xBBBBBBBBBBBBBBBBBBBBBBBBBt& o5bBBBBBBBBBBBB",
"BBBBBBBBBBBBBz7o O7xBBBBBBBBBBBBBBBBBBBBBBBBBBBt& o5bBBBBBBBBBBB",
"BBBBBBBBBBBBz7o +0mBBBBBBBBBBBBBBBBBBBBBBBBBBBBBu* o5bBBBBBBBBBB",
"BBBBBBBBBBBz7o #umBBBBBBBBBBBBBBBBBBBBBBBBBBBBBBBu* o5bBBBBBBBBB",
"BBBBBBBBBBz7o #umBBBBBBBBBBBBBBBBBBBBBBBBBBBBBBBBBu* o5bBBBBBBBB",
"BBBBBBBBBBqo O5gcnnMNBBBBBBBBBBBBBBBBBBBBBBBBBBBBBBu* o3zBBBBBBB",
"BBBBBBBBBk+   XoOOOO+++@$&&*-;;;<379eeeeeeeeeeypssss3+  -dBBBBBB",
"BBBBBBBBBk                                               =BBBBBB",
"BBBBBBBBBk;XXoooXXXXXXX                                  =BBBBBB",
"BBBBBBBBBBzhshhhhhhhhhgspiite00o  #*&&&&&&&&&&$#@@@@@##+*8BBBBBB",
"BBBBBBBBBBBBBBBBBBBBBBBBBBBBBBB> +hNBBBBBBBBBBBBBBBBBBBBBBBBBBBB",
"BBBBBBBBBBBBBBBBBBBBBBBBBBBBBBB, @lBBBBBBBBBBBBBBBBBBBBBBBBBBBBB",
"BBBBBBBBBBBBBBBBBBBBBBBBBBBBBBB, @lBBBBBBBBBBBBBBBBBBBBBBBBBBBBB",
"BBBBBBBBBBBBBBBBBBBBBBBBBBBBBBB, @lBBBBBBBBBBBBBBBBBBBBBBBBBBBBB",
"BBBBBBBBBBBBBBBBBBBBBBBBBBBBBBB, @lBBBBBBBBBBBBBBBBBBBBBBBBBBBBB",
"BBBBBBBBBBBBBBBBBBBBBBBBBBBBBBB, @lBBBBBBBBBBBBBBBBBBBBBBBBBBBBB",
"BBBBBBBBBBBBBBBBBBBBBBBBBBBBBBB, @lBBBBBBBBBBBBBBBBBBBBBBBBBBBBB",
"BBBBBBBBBBBBBBBBBBBBBBBBBBBBBBB, @lBBBBBBBBBBBBBBBBBBBBBBBBBBBBB",
"BBBBBBBBBBBBBBBBBBBBBBBBBBBBBBB- @vBBBBBBBBBBBBBBBBBBBBBBBBBBBBB",
"BBBBBBBBBBBBBBBBBBBBBBBBBBBBBBB& $MBBBBBBBBBBBBBBBBBBBBBBBBBBBBB",
"BBBBBBBBBBBBBBBBBBBBBBBBBBBBBBB$ $BBBBBBBBBBBBBBBBBBBBBBBBBBBBBB",
"BBBBBBBBBBBBBBBBBBBBBBBBBBBBBBB$ $BBBBBBBBBBBBBBBBBBBBBBBBBBBBBB",
"BBBBBBBBBBBBBBBBBBBBBBBBBBBBBBB$ $BBBBBBBBBBBBBBBBBBBBBBBBBBBBBB",
"BBBBBBBBBBBBBBBBBBBBBBBBBBBBBBB$ $BBBBBBBBBBBBBBBBBBBBBBBBBBBBBB",
"BBBBBBBBBBBBBBBBBBBBBBBBBBBBBBB$ $BBBBBBBBBBBBBBBBBBBBBBBBBBBBBB",
"BBBBBBBBBBBBBBBBBBBBBBBBBBBBBBB$ $BBBBBBBBBBBBBBBBBBBBBBBBBBBBBB",
"BBBBBBBBBBBBBBBBBBBBBBBBBBBBBBB$ $BBBBBBBBBBBBBBBBBBBBBBBBBBBBBB",
"BBBBBBBBBBBBBBBBBBBBBBBBBBBBBBB$ $BBBBBBBBBBBBBBBBBBBBBBBBBBBBBB",
"BBBBBBBBBBBBBBBBBBBBBBBBBBBBBBB$ $BBBBBBBBBBBBBBBBBBBBBBBBBBBBBB",
"BBBBBBBBBBBBBBBBBBBBBBBBBBBBBBB$ $BBBBBBBBBBBBBBBBBBBBBBBBBBBBBB",
"BBBBBBBBBBBBBBBBBBBBBBBBBBBBBBB$ $BBBBBBBBBBBBBBBBBBBBBBBBBBBBBB",
"BBBBBBBBBBBBBBBBBBBBBBBBBBBBBBB$ $BBBBBBBBBBBBBBBBBBBBBBBBBBBBBB",
"BBBBBBBBBBBBBBBBBBBBBBBBBBBBBBM$ &BBBBBBBBBBBBBBBBBBBBBBBBBBBBBB",
"BBBBBBBBBBBBBBBBBBBBBBBBBBBBBBv@ -BBBBBBBBBBBBBBBBBBBBBBBBBBBBBB",
"BBBBBBBBBBBBBBBBBBBBBBBBBBBBBBv:X9BBBBBBBBBBBBBBBBBBBBBBBBBBBBBB",
"BBBBBBBBBBBBBBBBBBBBBBBBBBBBBBMppfBBBBBBBBBBBBBBBBBBBBBBBBBBBBBB",
"BBBBBBBBBBBBBBBBBBBBBBBBBBBBBBBBBBBBBBBBBBBBBBBBBBBBBBBBBBBBBBBB",
"BBBBBBBBBBBBBBBBBBBBBBBBBBBBBBBBBBBBBBBBBBBBBBBBBBBBBBBBBBBBBBBB",
"BBBBBBBBBBBBBBBBBBBBBBBBBBBBBBBBBBBBBBBBBBBBBBBBBBBBBBBBBBBBBBBB"
};
