/* XPM */
static char *_3a99abbae6846b3cc521c761eceb4dflEpjuBerfNWgO9hH[] = {
/* columns rows colors chars-per-pixel */
"64 64 56 1 ",
"  c #0A0303",
". c #0B0404",
"X c #0C0404",
"o c #110404",
"O c #160606",
"+ c #1B0707",
"@ c #1D0808",
"# c #210909",
"$ c #240A0A",
"% c #2B0D0D",
"& c #2C0E0E",
"* c #300F0F",
"= c #331111",
"- c #351111",
"; c #391313",
": c #391414",
"> c #3C1515",
", c #411717",
"< c #431818",
"1 c #461919",
"2 c #491A1A",
"3 c #4D1B1B",
"4 c #531F1F",
"5 c #551F1F",
"6 c #5A2222",
"7 c #5F2424",
"8 c #632626",
"9 c #642525",
"0 c #672828",
"q c #6B2929",
"w c #6C2A2A",
"e c #702B2B",
"r c #762E2E",
"t c #782F2F",
"y c #7C3030",
"u c #813232",
"i c #863535",
"p c #933B3B",
"a c #943C3C",
"s c #9B3E3E",
"d c #9D4040",
"f c #A24242",
"g c #AA4545",
"h c #AE4747",
"j c #B74B4B",
"k c #BD4E4E",
"l c #C15050",
"z c #C65252",
"x c #C85353",
"c c #CF5656",
"v c #D25757",
"b c #D95B5B",
"n c #DB5C5C",
"m c #E35F5F",
"M c #EE6464",
"N c #F96969",
/* pixels */
"NNNNNNNNNNNNNNNNNNNNNNNNNNNNNNNNNNNNNNNNNNNNNNNNNNNNNNNNNNNNNNNN",
"NNNNNNNNNNNNNNNNNNNNNNNNNNNNNNNNNNNNNNNNNNNNNNNNNNNNNNNNNNNNNNNN",
"NNNNNNNNNNNNNNNNNNNNNNNNNNNNNNNNNNNNNNNNNNNNNNNNNNNNNNNNNNNNNNNN",
"NNNNNNNNNNNNNNNNNNNNNNNNNNNNNNmiidNNNNNNNNNNNNNNNNNNNNNNNNNNNNNN",
"NNNNNNNNNNNNNNNNNNNNNNNNNNNNNNc;X8NNNNNNNNNNNNNNNNNNNNNNNNNNNNNN",
"NNNNNNNNNNNNNNNNNNNNNNNNNNNNNNc@ =NNNNNNNNNNNNNNNNNNNNNNNNNNNNNN",
"NNNNNNNNNNNNNNNNNNNNNNNNNNNNNNm$ %NNNNNNNNNNNNNNNNNNNNNNNNNNNNNN",
"NNNNNNNNNNNNNNNNNNNNNNNNNNNNNNN$ $NNNNNNNNNNNNNNNNNNNNNNNNNNNNNN",
"NNNNNNNNNNNNNNNNNNNNNNNNNNNNNNN$ $NNNNNNNNNNNNNNNNNNNNNNNNNNNNNN",
"NNNNNNNNNNNNNNNNNNNNNNNNNNNNNNN$ $NNNNNNNNNNNNNNNNNNNNNNNNNNNNNN",
"NNNNNNNNNNNNNNNNNNNNNNNNNNNNNNN$ $NNNNNNNNNNNNNNNNNNNNNNNNNNNNNN",
"NNNNNNNNNNNNNNNNNNNNNNNNNNNNNNN$ $NNNNNNNNNNNNNNNNNNNNNNNNNNNNNN",
"NNNNNNNNNNNNNNNNNNNNNNNNNNNNNNN$ $NNNNNNNNNNNNNNNNNNNNNNNNNNNNNN",
"NNNNNNNNNNNNNNNNNNNNNNNNNNNNNNN$ $NNNNNNNNNNNNNNNNNNNNNNNNNNNNNN",
"NNNNNNNNNNNNNNNNNNNNNNNNNNNNNNN$ $NNNNNNNNNNNNNNNNNNNNNNNNNNNNNN",
"NNNNNNNNNNNNNNNNNNNNNNNNNNNNNNN$ $NNNNNNNNNNNNNNNNNNNNNNNNNNNNNN",
"NNNNNNNNNNNNNNNNNNNNNNNNNNNNNNN$ $NNNNNNNNNNNNNNNNNNNNNNNNNNNNNN",
"NNNNNNNNNNNNNNNNNNNNNNNNNNNNNNN$ $NNNNNNNNNNNNNNNNNNNNNNNNNNNNNN",
"NNNNNNNNNNNNNNNNNNNNNNNNNNNNNNN$ $NNNNNNNNNNNNNNNNNNNNNNNNNNNNNN",
"NNNNNNNNNNNNNNNNNNNNNNNNNNNNNNN% $mNNNNNNNNNNNNNNNNNNNNNNNNNNNNN",
"NNNNNNNNNNNNNNNNNNNNNNNNNNNNNNN= @cNNNNNNNNNNNNNNNNNNNNNNNNNNNNN",
"NNNNNNNNNNNNNNNNNNNNNNNNNNNNNNN> @kNNNNNNNNNNNNNNNNNNNNNNNNNNNNN",
"NNNNNNNNNNNNNNNNNNNNNNNNNNNNNNN> @kNNNNNNNNNNNNNNNNNNNNNNNNNNNNN",
"NNNNNNNNNNNNNNNNNNNNNNNNNNNNNNN> @kNNNNNNNNNNNNNNNNNNNNNNNNNNNNN",
"NNNNNNNNNNNNNNNNNNNNNNNNNNNNNNN> @kNNNNNNNNNNNNNNNNNNNNNNNNNNNNN",
"NNNNNNNNNNNNNNNNNNNNNNNNNNNNNNN> @kNNNNNNNNNNNNNNNNNNNNNNNNNNNNN",
"NNNNNNNNNNNNNNNNNNNNNNNNNNNNNNN> @kNNNNNNNNNNNNNNNNNNNNNNNNNNNNN",
"NNNNNNNNNNNNNNNNNNNNNNNNNNNNNNN> @kNNNNNNNNNNNNNNNNNNNNNNNNNNNNN",
"NNNNNNNNNNNNNNNNNNNNNNNNNNNNNNN: +hMNNNNNNNNNNNNNNNNNNNNNNNNNNNN",
"NNNNNNNNNNlgagggggggggfaiuurw99o  #&%%%%%%%%%%$#@@@@@##+&7NNNNNN",
"NNNNNNNNNj-XXoooXXXXXXX                                  *NNNNNN",
"NNNNNNNNNj                                               *NNNNNN",
"NNNNNNNNNj+   XoOOOO+++@$%%&=---,268wwwwwwwwwwtiaaaa2+  =sNNNNNN",
"NNNNNNNNNN0o O4fxbbmMNNNNNNNNNNNNNNNNNNNNNNNNNNNNNNy& o2lNNNNNNN",
"NNNNNNNNNNl6o #ynNNNNNNNNNNNNNNNNNNNNNNNNNNNNNNNNNy& o4vNNNNNNNN",
"NNNNNNNNNNNl6o #ynNNNNNNNNNNNNNNNNNNNNNNNNNNNNNNNy& o4vNNNNNNNNN",
"NNNNNNNNNNNNl6o +9nNNNNNNNNNNNNNNNNNNNNNNNNNNNNNy& o4vNNNNNNNNNN",
"NNNNNNNNNNNNNl6o O6zNNNNNNNNNNNNNNNNNNNNNNNNNNNr% o4vNNNNNNNNNNN",
"NNNNNNNNNNNNNNl6+ o6zNNNNNNNNNNNNNNNNNNNNNNNNNr% o4vNNNNNNNNNNNN",
"NNNNNNNNNNNNNNNmq# o6zNNNNNNNNNNNNNNNNNNNNNNNr% O4vNNNNNNNNNNNNN",
"NNNNNNNNNNNNNNNNmr# X3zNNNNNNNNNNNNNNNNNNNNNr% O5nNNNNNNNNNNNNNN",
"NNNNNNNNNNNNNNNNNmr# X1jNNNNNNNNNNNNNNNNNNMe% O5nNNNNNNNNNNNNNNN",
"NNNNNNNNNNNNNNNNNNmr%  <hNNNNNNNNNNNNNNNNMe$ O5nNNNNNNNNNNNNNNNN",
"NNNNNNNNNNNNNNNNNNNNu*  <hNNNNNNNNNNNNNNMt$ O5nNNNNNNNNNNNNNNNNN",
"NNNNNNNNNNNNNNNNNNNNNi=  >dMNNNNNNNNNNNMt% O6nNNNNNNNNNNNNNNNNNN",
"NNNNNNNNNNNNNNNNNNNNNNp-  -dMNNNNNNNNNMt% O6vNNNNNNNNNNNNNNNNNNN",
"NNNNNNNNNNNNNNNNNNNNNNNp-  =pMNNNNNNNMt% O6vNNNNNNNNNNNNNNNNNNNN",
"NNNNNNNNNNNNNNNNNNNNNNNNd,  =pMNNNNNnw$ O6vNNNNNNNNNNNNNNNNNNNNN",
"NNNNNNNNNNNNNNNNNNNNNNNNNd,  %ynNNNnw@ O6vNNNNNNNNNNNNNNNNNNNNNN",
"NNNNNNNNNNNNNNNNNNNNNNNNNNh2  #ynNnw@ O6vNNNNNNNNNNNNNNNNNNNNNNN",
"NNNNNNNNNNNNNNNNNNNNNNNNNNNh2X #ylw@ O8vNNNNNNNNNNNNNNNNNNNNNNNN",
"NNNNNNNNNNNNNNNNNNNNNNNNNNNNl6o @-+ O8vNNNNNNNNNNNNNNNNNNNNNNNNN",
"NNNNNNNNNNNNNNNNNNNNNNNNNNNNNl6o   O8vNNNNNNNNNNNNNNNNNNNNNNNNNN",
"NNNNNNNNNNNNNNNNNNNNNNNNNNNNNNl6. X8vNNNNNNNNNNNNNNNNNNNNNNNNNNN",
"NNNNNNNNNNNNNNNNNNNNNNNNNNNNNNNl-O-vNNNNNNNNNNNNNNNNNNNNNNNNNNNN",
"NNNNNNNNNNNNNNNNNNNNNNNNNNNNNNNNlllNNNNNNNNNNNNNNNNNNNNNNNNNNNNN",
"NNNNNNNNNNNNNNNNNNNNNNNNNNNNNNNNNNNNNNNNNNNNNNNNNNNNNNNNNNNNNNNN",
"NNNNNNNNNNNNNNNNNNNNNNNNNNNNNNNNNNNNNNNNNNNNNNNNNNNNNNNNNNNNNNNN",
"NNNNNNNNNNNNNNNNNNNNNNNNNNNNNNNNNNNNNNNNNNNNNNNNNNNNNNNNNNNNNNNN",
"NNNNNNNNNNNNNNNNNNNNNNNNNNNNNNNNNNNNNNNNNNNNNNNNNNNNNNNNNNNNNNNN",
"NNNNNNNNNNNNNNNNNNNNNNNNNNNNNNNNNNNNNNNNNNNNNNNNNNNNNNNNNNNNNNNN",
"NNNNNNNNNNNNNNNNNNNNNNNNNNNNNNNNNNNNNNNNNNNNNNNNNNNNNNNNNNNNNNNN",
"NNNNNNNNNNNNNNNNNNNNNNNNNNNNNNNNNNNNNNNNNNNNNNNNNNNNNNNNNNNNNNNN",
"NNNNNNNNNNNNNNNNNNNNNNNNNNNNNNNNNNNNNNNNNNNNNNNNNNNNNNNNNNNNNNNN"
};
