/* XPM */
static char *cc4b4e292466451da61c7f1e0c9f25ac[] = {
/* columns rows colors chars-per-pixel */
"64 64 42 1 ",
"  c #4D3D25",
". c #625034",
"X c #6A5433",
"o c #6A5434",
"O c #735E37",
"+ c #775F37",
"@ c #725C38",
"# c #775F39",
"$ c #755E3C",
"% c #766037",
"& c #77603A",
"* c #76623E",
"= c #79603A",
"- c #7A633D",
"; c #7C633F",
": c #7A643D",
"> c #7D663F",
", c #7C6340",
"< c #7F6741",
"1 c #7F6842",
"2 c #816741",
"3 c #806842",
"4 c #866B46",
"5 c #9B824E",
"6 c #9D834E",
"7 c #9E844C",
"8 c #9F844E",
"9 c #A0834E",
"0 c #A0844E",
"q c #AD8D5A",
"w c #B18F5B",
"e c #B28F5C",
"r c #B3915B",
"t c #B4915B",
"y c #B3915D",
"u c #B4915C",
"i c #B69461",
"p c #BB9762",
"a c #BA9863",
"s c #BC9963",
"d c #BB9864",
"f c #BC9864",
/* pixels */
"sf00888889sffstu60sssssfsssssf88sf00888889sffstu60sssssfsssssf88",
"sf00888889sffstu60sssssfsssssf88sf00888889sffstu60sssssfsssssf88",
"sfaary#+yrtu0000800000ry00utsf88sfaary#+yrtu0000800000ry00utsf88",
"ssssuy++yttu0888800880yy00ttsf88ssssuy++yttu0888800880yy00ttsf88",
"sssa00680008rrry++fdddutafsssf88sssa00680008rrry++fffdutafsssf88",
"ssaa08888888rrry+#fsaattssssss08ssaa08888888rrry+#fsssttssssss08",
"****@@-::::-<<<<##13********1<::****@@-::::-<<<<##13********1<::",
"oooooX####@@@###@###oooooooo@@@@oooooX####@@@###@###oooooooo@@@@",
"ii66666666iiii66ii6666@#qqqqqqiiii66666666iiii66ii6666@#qqqqqqii",
"sf88888888sssd68fa0888O#ytttttsssf88888888sssd68fa8888O#ytttttss",
"0080&#yrrrttsd68utrrrrre000000000080&#yrrrttsd68utrrrrre00000000",
"8888#+ytttttsd60uuttyrru888888888888#+ytttttsd60uurryrru88888888",
"dddaddttsssssd880888+#asaddddddddddaddttsssssd880888+#asaddddddd",
"aaaaasrrsssssa000088#+fsassaaaaaaaaaasrrsssssa000088#+fssssaaaaa",
"<<<<-*##-*-**-::::::oo**-*--<<<<<<<<-*##-*-**-::::::oo**-*--<<<<",
"####XoooooooXo@#####XooooooX########XoooooooXo@#####XooooooX####",
"iiiiiiiiii#@55iiiiqqqqqqiiiiii66iiiiiiiiii#@55iiiiqqqqqqiiiiii66",
"aaaaaaaaad+#88asaarrrrrrssaaaf08aaaaaaaaad+#88asaarrrrrrssaaaf08",
"0000000000dprrur000000#%aa0000880000000000dprrur000000#%aa000088",
"8888888886ssuttu688888#+da8888888888888886ssuttu688880#+da888888",
"aarrrrrraasf00008888rryyttrrru88aarrrrrraasf00008888rryyttrrru88",
"fstttrtraaaf08000008yrtrtttttt00fstttrtraaaf08000008yrtrtttttt00",
"11$#<>><****@@-----:>>><$$$$$#--11$#<>><****@@-----:>>><$$$$$#--",
"@@XX@@#@XXoooX@########@XXXXXX@#@@XX@@#@XXoooX@########@XXXXXX@#",
"iiiiiiipii65ii6666##5666qqiiiiiiiiiiiiipii65ii6666##5666qqiiiiii",
"ssssddsssf08dd6888##8888utssssssssssddsssf08dd6888##8888utssssss",
"uu00==asssppsd68aawyrr08000000uuuu00==asssppsd68aawyrr08000000uu",
"tu00##daaasssd68fattry00099906rttu00##daaasssd68fatrry88099906rt",
"sfds880009asad90faaa00yraaaaadassfda880009assd90fass00yraaaaadas",
"ssss888888ssfs88fasa08rrddassssssssa888888ssfs88fssa08rrddasssss",
"3333--22O@--44OO3333::#&..----333333--22O@--44OO3333::#&..----33",
"@#####;,oooX,;XX#####@XX  oooo@#######;,oooX,;XX#####@XX  oooo@#",
"sf00888889sffstu60sssssfsssssf88sf00888889sffstu60sssssfsssssf88",
"sf00888889sffstu68sssssfsssssf88sf00888889sffstu68sssssfsssssf88",
"sfaary#+yrtu0000880000ry00utsf88sfaary#+yrtu0000880000ry00utsf88",
"ssssuy++yttu0888888880yy00ttsf88ssssuy++yttu0888888880yy00ttsf88",
"sssa00680808rrry++fffdutafsssf88sssa00680808rrry++fffdutafsssf88",
"ssaa08888888rrry+#fsssttssssss08ssaa08888888rrry+#fsssttssssss08",
"****@@-::::-<<<<##13********1<::****@@-::::-<<<<##13********1<::",
"oooooX####@@@###@###oooooooo@@@@oooooX####@@@###@###oooooooo@@@@",
"ii66666666iiii66ii6666@#qqqqqqiiii66666666iiii66ii6666@#qqqqqqii",
"sf88888888sssd68fa0888O#ytttttsssf88888888sssd68fa0888O#ytttttss",
"0080&#yrrrttsd68utrrrrre000000000080&#yrrrttsd68utrrrrre00000000",
"8888#+ytttttsd60uuttyrru888888888888#+ytttttsd60uuttyrru88888888",
"dddaddttsssssd880888+#asaddddddddddaddttsssssd880888+#asaddddddd",
"aaaaasrrsssssa000088#+fssssaaaaaaaaaasrrsssssa000088#+fssssaaaaa",
"<<<<-*##-*-**-::::::oo**-*--<<<<<<<<-*##-*-**-::::::oo**-*--<<<<",
"####XoooooooXo@#####XooooooX########XoooooooXo@#####XooooooX####",
"iiiiiiiiii#@55iiiiqqqqqqiiiiii66iiiiiiiiii#@55iiiiqqqqqqiiiiii66",
"aaaaaaaaad+#88asaarrrrrrssaaaf08aaaaaaaaad+#88asaarrrrrrssaaaf08",
"0000000000dprrur000000#%aa0000880000000000dprrur000000#%aa000088",
"8888888886ssuttu688880#+da8888888888888886ssuttu688880#+da888888",
"aarrrrrraasf00008888rryyttrrru88aarrrrrraasf00008888rryyttrrru88",
"fstttrtraaaf08008008yrtrtttttt00fstttrtraaaf08008008yrtrtttttt00",
"11$#<>><****@@-----:>>><$$$$$#--11$#<>><****@@-----:>>><$$$$$#--",
"@@XX@@#@XXoooX@#@######@XXXXXX@#@@XX@@#@XXoooX@#@######@XXXXXX@#",
"iiiiiiipii65ii6666##5666qqiiiiiiiiiiiiipii65ii6666##5666qqiiiiii",
"ssssddsssf08dd6888##8888utssssssssssddsssf08dd6888##8888utssssss",
"uu00==asssppsd68aawyrr08000000uuuu00==asssppsd68aawyrr08000000uu",
"tu00##daaasssd68fattry00099906rttu00##daaasssd68fattry00099906rt",
"sfds880009assd90fass00yraaaaadassfds880009assd90fass00yraaaaadas",
"ssss888888ssfs88fasa08rrddasssssssss888888ssfs88fasa08rrddasssss",
"3333--22O@--44OO1333::#&..----333333--22O@--44OO1333::#&..----33",
"######;,oooX,;XX@####@XX  oooo@#######;,oooX,;XX@####@XX  oooo@#"
};
