/* XPM */
static char *_ceee82516fa4f2beab845327918332bvnDw4GuupQ8M1X8L[] = {
/* columns rows colors chars-per-pixel */
"64 64 65 1 ",
"  c black",
". c #070101",
"X c #0B0202",
"o c #0C0202",
"O c #110303",
"+ c #130404",
"@ c #150404",
"# c #190505",
"$ c #1D0606",
"% c #210707",
"& c #220808",
"* c #250909",
"= c #290B0B",
"- c #2B0C0C",
"; c #2C0C0C",
": c #320F0F",
"> c #371111",
", c #381212",
"< c #3C1313",
"1 c #3E1414",
"2 c #421616",
"3 c #451717",
"4 c #471919",
"5 c #481919",
"6 c #521E1E",
"7 c #541E1E",
"8 c #572020",
"9 c #5A2121",
"0 c #5C2222",
"q c #632525",
"w c #642626",
"e c #692828",
"r c #6C2929",
"t c #702A2A",
"y c #722C2C",
"u c #752D2D",
"i c #792F2F",
"p c #7B3030",
"a c #7F3232",
"s c #833333",
"d c #853535",
"f c #8B3737",
"g c #8C3838",
"h c #923B3B",
"j c #943B3B",
"k c #953C3C",
"l c #993E3E",
"z c #9D3F3F",
"x c #A14141",
"c c #A64444",
"v c #AA4545",
"b c #AF4747",
"n c #AE4848",
"m c #B84C4C",
"M c #BD4E4E",
"N c #C15050",
"B c #C55252",
"V c #D25757",
"C c #D15858",
"Z c #D95B5B",
"A c #DB5C5C",
"S c #E35F5F",
"D c #EE6464",
"F c #F46767",
"G c #F96969",
/* pixels */
"GGGGGGGGGGGGGGGGGGGGGGGGGGGGGGGGGGGGGGGGGGGGGGGGGGGGGGGGGGGGGGGG",
"GGGGGGGGGGGGGGGGGGGGGGGGGGGGGGGGGGGGGGGGGGGGGGGGGGGGGGGGGGGGGGGG",
"GGGGGGGGGGGGGGGGGGGGGGGGGGGGGGGGGGGGGGGGGGGGGGGGGGGGGGGGGGGGGGGG",
"GGGGGGGGGGGGGGGGGGGGGGGGGGGGGGGGGGGGGGGGGGGGGGGGGGGGGGGGGGGGGGGG",
"GGGGGGGGGGGGGGGGGGGGGGGGGGGGGGGGGGGGGGGGGGGGGGGGGGGGGGGGGGGGGGGG",
"GGGGGGGGGGGGGGGGGGGGGGGGGGS736AGGGGGGGGGGGGGGGGGGGGGGGGGGGGGGGGG",
"GGGGGGGGGGGGGGGGGGGGGGGGGDgo #AGGGGGGGGGGGGGGGGGGGGGGGGGGGGGGGGG",
"GGGGGGGGGGGGGGGGGGGGGGGGGl1  OAGGGGGGGGGGGGGGGGGGGGGGGGGGGGGGGGG",
"GGGGGGGGGGGGGGGGGGGGGGGGx6   *GGGGGGGGGGGGGGGGGGGGGGGGGGGGGGGGGG",
"GGGGGGGGGGGGGGGGGGGGGGGM7 $. ;GGGGGGGGGGGGGGGGGGGGGGGGGGGGGGGGGG",
"GGGGGGGGGGGGGGGGGGGGGGMwoo7# ;GGGGGGGGGGGGGGGGGGGGGGGGGGGGGGGGGG",
"GGGGGGGGGGGGGGGGGGGGGAwOXwl$ :GGGGGGGGGGGGGGGGGGGGGGGGGGGGGGGGGG",
"GGGGGGGGGGGGGGGGGGGGAu& 7Mm@ ,GGGGGGGGGGGGGGGGGGGGGGGGGGGGGGGGGG",
"GGGGGGGGGGGGGGGGGGGAa= 6xGv@ 1GGGGGGGGGGGGGGGGGGGGGGGGGGGGGGGGGG",
"GGGGGGGGGGGGGGGGGGAg;.2lGGv@ 1GGGGGGGGGGGGGGGGGGGGGGGGGGGGGGGGGG",
"GGGGGGGGGGGGGGGGGDg:O:gDGGv@ 1GGGGGGGGGGGGGGGGGGGGGGGGGGGGGGGGGG",
"GGGGGGGGGGGGGGGGGl2.;gAGGGv@ 1GGGGGGGGGGGGGGGGGGGGGGGGGGGGGGGGGG",
"GGGGGGGGGGGGGGGGx6 =aAGGGGv@ 1GGGGGGGGGGGGGGGGGGGGGGGGGGGGGGGGGG",
"GGGGGGGGGGGGGGGM7 &uAGGGGGv@ 1GGGGGGGGGGGGGGGGGGGGGGGGGGGGGGGGGG",
"GGGGGGGGGGGGGGMwoowAGGGGGGv@ 1GGGGGGGGGGGGGGGGGGGGGGGGGGGGGGGGGG",
"GGGGGGGGGGGGGAwOXwMGGGGGGGv@ 1GGGGGGGGGGGGGGGGGGGGGGGGGGGGGGGGGG",
"GGGGGGGGGGGGAu& 7MGGGGGGGGv@ 1GGGGGGGGGGGGGGGGGGGGGGGGGGGGGGGGGG",
"GGGGGGGGGGGAa= 6xGGGGGGGGGv@ 1GGGGGGGGGGGGGGGGGGGGGGGGGGGGGGGGGG",
"GGGGGGGGGGAa;.5lGGGGGGGGGGv@ 1GGGGGGGGGGGGGGGGGGGGGGGGGGGGGGGGGG",
"GGGGGGGGGDg;.2lDGGGGGGGGGGv@ 1GGGGGGGGGGGGGGGGGGGGGGGGGGGGGGGGGG",
"GGGGGGGGDl2.;gDGGGGGGGGGGGv@ 1GGGGGGGGGGGGGGGGGGGGGGGGGGGGGGGGGG",
"GGGGGGGGl5.;aAGGGGGGGGGGGGv@ 1GGGGGGGGGGGGGGGGGGGGGGGGGGGGGGGGGG",
"GGGGGGGb6 *aAGGGGGGGGGGGGGv@ 1GGGGGGGGGGGGGGGGGGGGGGGGGGGGGGGGGG",
"GGGGGGM0 OeAGGGGGGGGGGGGGGv@ 1GGGGGGGGGGGGGGGGGGGGGGGGGGGGGGGGGG",
"GGGGGBwoowBGGGGGGGGGGGGGGGv@ 1GGGGGGGGGGGGGGGGGGGGGGGGGGGGGGGGGG",
"GGGGAeO 0MGGGGGGGGGGGGGGGGv@ 1GGGGGGGGGGGGGGGGGGGGGGGGGGGGGGGGGG",
"GGGGV; ;lGGGGGGGGGGGGGGGGGvO &jjjjjgdsssurqqqqqqqqqq9655425pNGGG",
"GGGGV2.$gDFGGGGGGGGGGGGGGGv.                               OdGGG",
"GGGGDg=.2cFGGGGGGGGGGGGGGGvX                               OdGGG",
"GGGGGAi#.8VGGGGGGGGGGGGGGGk+.X#####$%***=:>>>>>>>>>><355425pNGGG",
"GGGGGGC0.#tAGGGGGGGGGGGGGGs@@sGGGGGGGGGGGGGGGGGGGGGGGGGGGGGGGGGG",
"GGGGGGGb6 *aDGGGGGGGGGGGGGyooyGGGGGGGGGGGGGGGGGGGGGGGGGGGGGGGGGG",
"GGGGGGGGl, ,lGGGGGGGGGGGGGyooyGGGGGGGGGGGGGGGGGGGGGGGGGGGGGGGGGG",
"GGGGGGGGDa& 6NGGGGGGGGGGGGwooaGGGGGGGGGGGGGGGGGGGGGGGGGGGGGGGGGG",
"GGGGGGGGGAwOOwVGGGGGGGGGGG0.OdGGGGGGGGGGGGGGGGGGGGGGGGGGGGGGGGGG",
"GGGGGGGGGGN8.$iDGGGGGGGGGG6.OhGGGGGGGGGGGGGGGGGGGGGGGGGGGGGGGGGG",
"GGGGGGGGGGGc, >lGGGGGGGGGG6.OhGGGGGGGGGGGGGGGGGGGGGGGGGGGGGGGGGG",
"GGGGGGGGGGGDa* 6nGGGGGGGGG9.OdGGGGGGGGGGGGGGGGGGGGGGGGGGGGGGGGGG",
"GGGGGGGGGGGGAt#.0VGGGGGGGG9XXaGGGGGGGGGGGGGGGGGGGGGGGGGGGGGGGGGG",
"GGGGGGGGGGGGGC0.#tDGGGGGGG9 XuGGGGGGGGGGGGGGGGGGGGGGGGGGGGGGGGGG",
"GGGGGGGGGGGGGGb4 :fGGGGGGG7 XaGGGGGGGGGGGGGGGGGGGGGGGGGGGGGGGGGG",
"GGGGGGGGGGGGGGGf: 4nGGGGGG7 XaGGGGGGGGGGGGGGGGGGGGGGGGGGGGGGGGGG",
"GGGGGGGGGGGGGGGDt$.0NGGGGG7 XaGGGGGGGGGGGGGGGGGGGGGGGGGGGGGGGGGG",
"GGGGGGGGGGGGGGGGCwOOwSGGGD7 XaGGGGGGGGGGGGGGGGGGGGGGGGGGGGGGGGGG",
"GGGGGGGGGGGGGGGGGN6 =iGGGS5XoaGGGGGGGGGGGGGGGGGGGGGGGGGGGGGGGGGG",
"GGGGGGGGGGGGGGGGGGz1 1zGGZ5XoaGGGGGGGGGGGGGGGGGGGGGGGGGGGGGGGGGG",
"GGGGGGGGGGGGGGGGGGGi= 6NGZ5XoaGGGGGGGGGGGGGGGGGGGGGGGGGGGGGGGGGG",
"GGGGGGGGGGGGGGGGGGGSw@OwNZ5XoaGGGGGGGGGGGGGGGGGGGGGGGGGGGGGGGGGG",
"GGGGGGGGGGGGGGGGGGGGNwo@wM5XOaGGGGGGGGGGGGGGGGGGGGGGGGGGGGGGGGGG",
"GGGGGGGGGGGGGGGGGGGGGN4 ;w,O@aGGGGGGGGGGGGGGGGGGGGGGGGGGGGGGGGGG",
"GGGGGGGGGGGGGGGGGGGGGGf: ;*O#aGGGGGGGGGGGGGGGGGGGGGGGGGGGGGGGGGG",
"GGGGGGGGGGGGGGGGGGGGGGDt$ oX#aGGGGGGGGGGGGGGGGGGGGGGGGGGGGGGGGGG",
"GGGGGGGGGGGGGGGGGGGGGGGVwX  OaGGGGGGGGGGGGGGGGGGGGGGGGGGGGGGGGGG",
"GGGGGGGGGGGGGGGGGGGGGGGGN2  XuGGGGGGGGGGGGGGGGGGGGGGGGGGGGGGGGGG",
"GGGGGGGGGGGGGGGGGGGGGGGGGh* .9GGGGGGGGGGGGGGGGGGGGGGGGGGGGGGGGGG",
"GGGGGGGGGGGGGGGGGGGGGGGGGDi-.yGGGGGGGGGGGGGGGGGGGGGGGGGGGGGGGGGG",
"GGGGGGGGGGGGGGGGGGGGGGGGGGDhhzGGGGGGGGGGGGGGGGGGGGGGGGGGGGGGGGGG",
"GGGGGGGGGGGGGGGGGGGGGGGGGGGGGGGGGGGGGGGGGGGGGGGGGGGGGGGGGGGGGGGG",
"GGGGGGGGGGGGGGGGGGGGGGGGGGGGGGGGGGGGGGGGGGGGGGGGGGGGGGGGGGGGGGGG"
};
